<?xml version="1.0" standalone="no"?>
<!DOCTYPE svg PUBLIC "-//W3C//DTD SVG 20010904//EN"
 "http://www.w3.org/TR/2001/REC-SVG-20010904/DTD/svg10.dtd">
<svg version="1.0" xmlns="http://www.w3.org/2000/svg"
 width="1600.000000pt" height="1600.000000pt" viewBox="0 0 1600.000000 1600.000000"
 preserveAspectRatio="xMidYMid meet">

<g transform="translate(0.000000,1600.000000) scale(0.100000,-0.100000)"
fill="#000000" stroke="none">
<path d="M5004 15356 c-82 -26 -173 -109 -445 -406 -201 -220 -615 -696 -657
-756 -35 -51 -54 -141 -42 -202 22 -119 71 -171 247 -266 557 -302 1071 -691
1538 -1167 199 -204 325 -346 483 -549 130 -167 152 -211 152 -306 0 -92 -22
-152 -77 -214 -118 -132 -310 -146 -441 -35 -23 20 -77 82 -120 138 -286 370
-706 782 -1097 1077 -122 92 -394 273 -555 370 -149 90 -524 280 -553 280 -32
0 -251 -150 -582 -399 -279 -210 -389 -303 -481 -411 -478 -561 -820 -1064
-1084 -1596 -118 -238 -143 -309 -133 -382 8 -64 45 -141 89 -185 21 -20 149
-100 288 -179 729 -412 1275 -758 1687 -1068 175 -132 352 -282 342 -290 -4
-4 -48 -17 -98 -30 -433 -111 -921 -366 -1365 -713 -366 -287 -780 -705 -1141
-1152 -331 -410 -694 -927 -725 -1033 -23 -78 -15 -164 24 -244 46 -96 1175
-1868 1219 -1912 74 -75 193 -110 295 -86 50 12 65 25 253 209 370 362 626
591 857 764 64 48 118 87 120 87 3 0 -6 -37 -18 -81 -28 -96 -68 -329 -84
-484 -27 -282 -39 -742 -23 -943 6 -83 7 -84 55 -137 26 -29 67 -62 91 -73 36
-17 1523 -362 1561 -362 7 0 38 -22 69 -49 516 -451 1259 -752 2168 -876 107
-14 209 -28 227 -31 20 -3 54 -24 91 -58 166 -148 378 -251 622 -303 116 -24
362 -24 478 0 244 52 456 155 622 304 33 29 65 53 72 53 7 0 82 9 167 20 964
122 1735 425 2248 884 52 47 69 56 100 56 38 0 1339 512 1455 573 102 53 167
160 167 273 0 129 -68 636 -121 899 -34 174 -77 341 -120 473 -17 51 -29 95
-27 98 3 2 76 -32 164 -75 231 -115 540 -306 962 -594 268 -183 355 -217 478
-182 32 9 79 31 104 49 61 44 1185 1414 1224 1493 25 48 30 73 34 150 10 206
-30 257 -498 639 -395 322 -1083 742 -1633 996 l-178 83 538 7 c296 5 689 11
873 15 l335 8 57 28 c67 33 112 80 146 155 41 90 36 130 -87 682 -120 537
-138 592 -210 649 -83 65 -14 61 -927 51 -456 -5 -944 -12 -1084 -15 -210 -5
-252 -4 -240 7 248 213 779 573 1364 926 105 62 199 122 210 132 12 10 40 35
63 55 63 55 97 132 97 225 1 44 -5 90 -13 110 -39 93 -513 970 -741 1370 -529
927 -930 1474 -1181 1610 -60 33 -69 35 -154 34 -88 -1 -94 -3 -250 -68 -315
-133 -667 -321 -890 -475 -383 -264 -581 -454 -987 -947 -58 -71 -120 -142
-138 -159 l-31 -30 19 45 c126 288 357 772 637 1330 122 245 230 468 239 495
18 56 21 152 6 207 -18 63 -203 325 -369 523 -176 209 -414 424 -508 458 -73
26 -175 23 -242 -8 -95 -45 -236 -172 -392 -355 -265 -311 -497 -726 -600
-1072 -17 -57 -35 -114 -40 -128 -5 -15 -6 50 -3 165 2 105 6 478 7 830 l2
640 -27 50 c-42 79 -102 133 -179 160 -61 22 -1336 99 -1409 85 -99 -19 -186
-84 -227 -170 l-21 -45 197 -1082 c109 -596 196 -1083 195 -1083 -2 0 -26 44
-55 98 -398 740 -947 1435 -1489 1884 -446 370 -757 523 -946 464z m3449
-4822 c537 -53 1111 -223 1597 -472 159 -82 326 -178 436 -253 l71 -48 7 -243
c12 -448 30 -778 62 -1133 48 -552 136 -1180 174 -1256 32 -62 86 -116 148
-146 52 -26 67 -28 183 -30 144 -2 187 -11 280 -59 185 -97 300 -318 269 -516
-14 -94 -44 -167 -95 -237 -54 -74 -124 -127 -236 -180 -147 -70 -214 -163
-212 -301 0 -79 16 -136 163 -600 111 -350 169 -545 196 -655 23 -97 26 -123
21 -220 -21 -386 -196 -764 -493 -1059 -455 -453 -1170 -726 -2174 -831 -204
-21 -221 -28 -346 -145 -167 -156 -303 -213 -504 -213 -201 0 -337 57 -499
208 -57 54 -122 106 -146 116 -28 13 -106 26 -220 39 -776 88 -1344 264 -1800
558 -523 336 -847 864 -848 1382 -1 182 31 327 227 1023 52 186 98 357 101
381 8 53 -15 151 -49 204 -32 51 -65 78 -170 137 -404 226 -365 781 67 947 40
16 79 21 169 22 109 2 120 4 183 35 79 39 137 107 160 184 8 29 33 158 54 287
114 671 177 1285 201 1949 6 151 11 275 13 277 1 1 234 77 517 169 588 191
1418 470 1815 610 l270 95 130 -6 c72 -3 197 -12 278 -20z"/>
<path d="M7235 8916 c-22 -7 -346 -166 -720 -354 -502 -251 -693 -351 -728
-382 -140 -124 -142 -340 -6 -466 73 -67 105 -79 211 -79 l97 0 714 357 c764
382 761 380 815 483 22 42 26 63 26 135 1 75 -2 92 -28 143 -55 108 -149 168
-270 173 -41 2 -88 -2 -111 -10z"/>
<path d="M8603 8590 c-94 -19 -173 -81 -220 -173 -36 -70 -39 -196 -5 -269 28
-62 100 -134 159 -159 26 -11 353 -96 727 -190 725 -181 759 -187 847 -153
139 54 217 176 207 322 -8 109 -74 209 -169 258 -51 25 -1368 358 -1454 367
-27 3 -69 2 -92 -3z"/>
<path d="M6514 6986 c-171 -56 -282 -237 -254 -412 40 -245 298 -386 524 -285
69 30 148 111 182 184 26 55 29 73 29 157 0 87 -3 101 -32 161 -39 79 -102
140 -181 177 -46 21 -74 27 -142 29 -50 1 -102 -4 -126 -11z"/>
<path d="M9118 6977 c-177 -75 -272 -262 -224 -442 19 -73 42 -113 100 -169
61 -61 120 -92 201 -104 300 -48 528 263 393 535 -32 64 -111 141 -177 172
-82 38 -213 41 -293 8z"/>
<path d="M6849 5231 c-544 -166 -950 -457 -1229 -881 -73 -112 -166 -298 -210
-425 -30 -87 -80 -279 -80 -310 0 -13 297 -15 2670 -15 l2670 0 0 33 c0 68
-33 225 -70 338 -180 545 -627 962 -1297 1208 -72 26 -282 91 -296 91 -3 0
-23 -28 -45 -63 -92 -145 -250 -315 -382 -408 -121 -86 -280 -155 -414 -178
-85 -15 -262 -13 -348 3 -280 55 -548 248 -751 544 -39 56 -76 102 -82 102 -5
-1 -67 -18 -136 -39z"/>
</g>
</svg>
